<svg xmlns="http://www.w3.org/2000/svg" viewBox="0 0 100 110" fill="none" aria-hidden="true">
  <defs>
    <linearGradient id="airdDoc" x1="20" y1="8" x2="80" y2="100" gradientUnits="userSpaceOnUse">
      <stop offset="0%" stop-color="#9b9df8"/>
      <stop offset="50%" stop-color="#6d70f2"/>
      <stop offset="100%" stop-color="#585bea"/>
    </linearGradient>
  </defs>
  <!-- Match production logo-icon.png silhouette -->
  <path fill="url(#airdDoc)" d="
    M22 28
    C22 14 34 8 48 8
    H62
    L88 34
    V78
    C88 94 74 102 58 102
    H42
    C28 102 18 90 18 76
    C14 82 12 88 16 96
    C10 88 10 74 16 62
    C18 48 20 36 22 28
    Z"/>
  <path d="M62 8 L88 34 H72 C67 34 62 29 62 24 Z" fill="#3f42c4" opacity="0.28"/>
  <path d="M62 8 V28 C62 31.3 64.7 34 68 34 H88 L62 8 Z" fill="#d2d0fc"/>
  <path d="M24 84 C20 70 28 54 42 42 C52 34 64 30 74 28"
        stroke="#fff" stroke-width="13" stroke-linecap="round" fill="none"/>
  <path fill="#fff" d="M64 18 L86 22 L74 42 Z"/>
</svg>
